<svg width="28" height="17" viewBox="0 0 28 17" fill="none" xmlns="http://www.w3.org/2000/svg">
    <path
        d="M21.875 9.38886H6.125C5.635 9.38886 5.25 8.99775 5.25 8.49997C5.25 8.0022 5.635 7.61108 6.125 7.61108H21.875C22.365 7.61108 22.75 8.0022 22.75 8.49997C22.75 8.99775 22.365 9.38886 21.875 9.38886Z"
        fill="black" />
    <path
        d="M17.5 15.611C17.3852 15.6125 17.2715 15.5895 17.166 15.5436C17.0605 15.4976 16.9656 15.4298 16.8875 15.3444C16.5375 14.9888 16.5375 14.4377 16.8875 14.0822L22.4 8.48216L16.8875 2.88216C16.5375 2.5266 16.5375 1.97549 16.8875 1.61994C17.2375 1.26438 17.78 1.26438 18.13 1.61994L24.255 7.84216C24.605 8.19772 24.605 8.74883 24.255 9.10438L18.13 15.3266C17.955 15.5044 17.7275 15.5933 17.5175 15.5933L17.5 15.611Z"
        fill="black" />
</svg>