<svg width="16" height="16" viewBox="0 0 16 16" fill="none" xmlns="http://www.w3.org/2000/svg">
<path d="M8.82241 0C9.72236 0.00239988 10.1791 0.00719963 10.5735 0.0183991L10.7287 0.0239987C10.9079 0.0303984 11.0847 0.038398 11.2983 0.0479975C12.1494 0.0879955 12.7302 0.222389 13.2398 0.419979C13.7678 0.623168 14.2125 0.898354 14.6573 1.34233C15.0641 1.74223 15.3788 2.22596 15.5797 2.75986C15.7773 3.26943 15.9116 3.8502 15.9516 4.70216C15.9612 4.91495 15.9692 5.09174 15.9756 5.27173L15.9804 5.42692C15.9924 5.8205 15.9972 6.27728 15.9988 7.17723L15.9996 7.774V8.82195C16.0016 9.40544 15.9955 9.98894 15.9812 10.5723L15.9764 10.7275C15.97 10.9074 15.962 11.0842 15.9524 11.297C15.9124 12.149 15.7765 12.7289 15.5797 13.2393C15.3794 13.7735 15.0646 14.2574 14.6573 14.6569C14.2573 15.0635 13.7736 15.3782 13.2398 15.5792C12.7302 15.7768 12.1494 15.9112 11.2983 15.9512C11.1085 15.9601 10.9186 15.9681 10.7287 15.9752L10.5735 15.98C10.1791 15.9912 9.72236 15.9968 8.82241 15.9984L8.22564 15.9992H7.17849C6.59473 16.0012 6.01097 15.9951 5.42738 15.9808L5.27219 15.976C5.08229 15.9688 4.89243 15.9605 4.70262 15.9512C3.85146 15.9112 3.27069 15.7768 2.76032 15.5792C2.22648 15.3787 1.74295 15.0639 1.34359 14.6569C0.93645 14.2571 0.621409 13.7733 0.42044 13.2393C0.22285 12.7297 0.088457 12.149 0.0484591 11.297C0.0395466 11.1072 0.0315469 10.9173 0.0244603 10.7275L0.0204606 10.5723C0.00571902 9.98894 -0.000948019 9.40545 0.000461577 8.82195V7.17723C-0.00177108 6.59374 0.00409591 6.01025 0.0180607 5.42692L0.0236604 5.27173C0.0300601 5.09174 0.0380597 4.91495 0.0476592 4.70216C0.0876571 3.8502 0.22205 3.27023 0.41964 2.75986C0.620521 2.22541 0.93619 1.74153 1.34439 1.34233C1.74365 0.935531 2.22686 0.620758 2.76032 0.419979C3.27069 0.222389 3.85066 0.0879955 4.70262 0.0479975C4.91541 0.038398 5.093 0.0303984 5.27219 0.0239987L5.42738 0.019199C6.01071 0.00498591 6.5942 -0.0011477 7.17769 0.000799901L8.82241 0ZM8.00005 3.9998C6.93924 3.9998 5.92188 4.4212 5.17177 5.17131C4.42166 5.92142 4.00026 6.93878 4.00026 7.99959C4.00026 9.0604 4.42166 10.0778 5.17177 10.8279C5.92188 11.578 6.93924 11.9994 8.00005 11.9994C9.06086 11.9994 10.0782 11.578 10.8283 10.8279C11.5784 10.0778 11.9998 9.0604 11.9998 7.99959C11.9998 6.93878 11.5784 5.92142 10.8283 5.17131C10.0782 4.4212 9.06086 3.9998 8.00005 3.9998ZM8.00005 5.59971C8.31521 5.59966 8.62729 5.66168 8.91848 5.78224C9.20966 5.9028 9.47425 6.07953 9.69714 6.30234C9.92002 6.52515 10.0968 6.78968 10.2175 7.08083C10.3381 7.37197 10.4003 7.68403 10.4003 7.99919C10.4004 8.31435 10.3384 8.62643 10.2178 8.91761C10.0972 9.2088 9.92052 9.47339 9.6977 9.69628C9.47489 9.91916 9.21036 10.096 8.91921 10.2166C8.62807 10.3373 8.31601 10.3994 8.00085 10.3995C7.36437 10.3995 6.75395 10.1466 6.30388 9.69656C5.85382 9.2465 5.60098 8.63608 5.60098 7.99959C5.60098 7.3631 5.85382 6.75269 6.30388 6.30262C6.75395 5.85256 7.36437 5.59971 8.00085 5.59971M12.2006 2.79986C11.9354 2.79986 11.6811 2.90521 11.4936 3.09274C11.306 3.28026 11.2007 3.5346 11.2007 3.79981C11.2007 4.06501 11.306 4.31935 11.4936 4.50688C11.6811 4.6944 11.9354 4.79975 12.2006 4.79975C12.4658 4.79975 12.7202 4.6944 12.9077 4.50688C13.0952 4.31935 13.2006 4.06501 13.2006 3.79981C13.2006 3.5346 13.0952 3.28026 12.9077 3.09274C12.7202 2.90521 12.4658 2.79986 12.2006 2.79986Z" fill="black"/>
</svg>
