<svg width="16" height="12" viewBox="0 0 16 12" fill="none" xmlns="http://www.w3.org/2000/svg">
    <path d="M4.66602 4L7.99935 6.33333L11.3327 4" stroke="black" stroke-width="1.5"
        stroke-linecap="round" stroke-linejoin="round" />
    <path
        d="M1.33301 9.3335V2.66683C1.33301 2.31321 1.47348 1.97407 1.72353 1.72402C1.97358 1.47397 2.31272 1.3335 2.66634 1.3335H13.333C13.6866 1.3335 14.0258 1.47397 14.2758 1.72402C14.5259 1.97407 14.6663 2.31321 14.6663 2.66683V9.3335C14.6663 9.68712 14.5259 10.0263 14.2758 10.2763C14.0258 10.5264 13.6866 10.6668 13.333 10.6668H2.66634C2.31272 10.6668 1.97358 10.5264 1.72353 10.2763C1.47348 10.0263 1.33301 9.68712 1.33301 9.3335Z"
        stroke="black" stroke-width="1.5" />
</svg>