<svg width="172" height="30" viewBox="0 0 172 30" fill="none" xmlns="http://www.w3.org/2000/svg">
<path d="M13.919 1.14355H0.111084V29.3006C0.111084 29.3006 5.34035 29.3006 12.8169 29.3006C20.2935 29.3006 21.4603 21.7531 21.4603 21.7531C21.4603 21.7531 21.4603 19.1148 21.4603 10.9546C21.4603 2.79434 13.919 1.14355 13.919 1.14355ZM14.3727 20.4988C14.2503 23.2598 11.6789 23.1372 11.6789 23.1372H7.14107V7.30697C7.14107 7.30697 9.16507 7.30697 11.3691 7.30697C13.5732 7.30697 14.3727 10.6806 14.3727 10.6806C14.3727 10.6806 14.4952 17.7379 14.3727 20.4988Z" fill="white"/>
<path d="M39.5611 29.171H35.1314C34.4111 29.171 33.8204 28.5871 33.8204 27.859V2.58542C33.8204 1.86455 34.4039 1.27344 35.1314 1.27344H39.5611C40.2814 1.27344 40.872 1.85734 40.872 2.58542V27.859C40.872 28.5871 40.2886 29.171 39.5611 29.171Z" fill="white"/>
<path d="M136.85 1.27344H130.324H125.895H119.369C118.648 1.27344 118.058 1.85734 118.058 2.58542V5.84374C118.058 6.5646 118.641 7.15571 119.369 7.15571H124.584V27.8662C124.584 28.5871 125.167 29.1782 125.895 29.1782H130.324C131.045 29.1782 131.635 28.5943 131.635 27.8662V7.14851H136.85C137.57 7.14851 138.161 6.5646 138.161 5.83653V2.58542C138.161 1.85734 137.57 1.27344 136.85 1.27344Z" fill="white"/>
<path d="M62.7615 0.444336C56.992 0.444336 52.3102 5.12997 52.3102 10.9041V19.5401C52.3102 25.3143 56.992 29.9999 62.7615 29.9999C68.531 29.9999 73.2128 25.3143 73.2128 19.5401V10.9041C73.2128 5.12997 68.531 0.444336 62.7615 0.444336ZM66.4205 20.0231C66.4205 21.8973 64.9079 23.4112 63.0352 23.4112H62.4806C60.6078 23.4112 59.0952 21.8973 59.0952 20.0231V10.4211C59.0952 8.54688 60.6078 7.03306 62.4806 7.03306H63.0352C64.9079 7.03306 66.4205 8.54688 66.4205 10.4211V20.0231Z" fill="white"/>
<path d="M97.2992 1.27344H92.5597H89.0735H88.1299C87.4097 1.27344 86.819 1.85734 86.819 2.58542V13.0019V27.859C86.819 28.5799 87.4025 29.171 88.1299 29.171H92.5597C93.28 29.171 93.8706 28.5871 93.8706 27.859V19.3744H97.2992C102.802 19.3744 107.268 15.3231 107.268 10.3275C107.268 5.33192 102.802 1.27344 97.2992 1.27344ZM100.987 10.5582C100.987 12.1802 99.5393 13.4921 97.7602 13.4921H93.8706V7.14851H97.7602C99.5465 7.14851 100.987 8.46048 100.987 10.0824V10.5582Z" fill="white"/>
<path d="M171.921 27.4553L163.45 2.58542C163.45 1.86455 162.867 1.27344 162.139 1.27344H161.181H157.71H156.752C156.031 1.27344 155.441 1.85734 155.441 2.58542L146.97 27.4553C146.79 27.9816 146.927 28.5871 147.366 28.9187C147.582 29.0773 147.849 29.171 148.137 29.171H152.567C153.287 29.171 153.878 28.5871 153.878 27.859L155.095 24.2907H163.789L165.006 27.859C165.006 28.5799 165.589 29.171 166.317 29.171H170.747C171.035 29.171 171.301 29.0773 171.517 28.9187C171.964 28.5943 172.101 27.9816 171.921 27.4553ZM157.076 18.4805L159.445 11.5242L161.815 18.4805H157.076Z" fill="white"/>
</svg>
