<svg width="166" height="72" viewBox="0 0 166 72" fill="none" xmlns="http://www.w3.org/2000/svg">
    <g clip-path="url(#clip0_30_2110)">
        <path fill-rule="evenodd" clip-rule="evenodd"
            d="M90.6185 3.08568C101.855 9.03898 112.313 20.4684 112.313 39.9339C112.313 41.3367 112.279 42.6474 112.189 43.9118C117.795 39.642 121.466 32.6072 121.466 24.6456C121.466 8.32384 105.305 -3.94972 90.6185 3.08568ZM92.7527 22.1221C90.3363 22.1221 88.3826 20.1308 88.3826 17.687C88.3826 15.232 90.3363 13.2396 92.7527 13.2396C95.1638 13.2396 97.1291 15.232 97.1291 17.687C97.1291 20.1308 95.1638 22.1221 92.7527 22.1221ZM70.6674 0C57.9417 0 40.2358 8.87895 40.2358 28.4347C40.2358 37.7023 44.8198 52.6348 60.7228 52.6348C76.634 52.6348 77.233 35.5832 90.8671 38.6924C96.9088 40.0828 98.9187 45.2916 97.4732 49.6751C96.0167 54.0774 93.4928 55.5716 90.116 55.2281C86.7509 54.8963 85.8529 53.1102 86.0391 50.9923C86.2253 48.8463 88.8174 47.1633 91.1603 48.3316L94.1022 42.9844C93.306 42.1778 91.9623 40.9246 88.9868 40.5523C83.3932 39.8542 76.4368 45.0624 76.4368 53.1102C76.4368 59.8595 82.2339 65.12 89.173 65.7442C95.5026 66.3164 110.054 64.7366 110.054 39.9339C110.054 9.68555 83.3932 0 70.6674 0Z"
            fill="white" />
        <path fill-rule="evenodd" clip-rule="evenodd"
            d="M110.918 63.6398C110.918 65.3218 111.473 66.7008 112.592 67.7714C113.701 68.8593 114.971 69.4029 116.422 69.4029C118.002 69.4029 119.327 68.8478 120.414 67.7433C121.495 66.6336 122.032 65.2771 122.032 63.6846C122.032 62.0646 121.495 60.708 120.436 59.6144C119.372 58.5214 118.058 57.9662 116.489 57.9662C114.931 57.9662 113.607 58.5214 112.532 59.6144C111.462 60.7023 110.918 62.0422 110.918 63.6398ZM108.64 63.6232C108.64 61.487 109.411 59.6483 110.963 58.1178C112.498 56.5758 114.344 55.8135 116.512 55.8135C118.662 55.8135 120.485 56.5873 122.016 58.1345C123.545 59.6816 124.316 61.5376 124.316 63.707C124.316 65.8936 123.545 67.7433 122.01 69.2629C120.458 70.7876 118.59 71.5557 116.4 71.5557C114.455 71.5557 112.72 70.8771 111.173 69.5206C109.488 68.0125 108.64 66.0503 108.64 63.6232Z"
            fill="white" />
        <path fill-rule="evenodd" clip-rule="evenodd"
            d="M129.469 62.9637H130.33C132.44 62.9637 133.498 62.1149 133.498 60.4464C133.498 58.8189 132.401 58.0052 130.223 58.0052H129.469V62.9637ZM129.469 65.1608V71.5557H127.166V55.8135H129.773C131.055 55.8135 132.006 55.901 132.665 56.0927C133.313 56.279 133.899 56.6272 134.4 57.1219C135.278 58.0112 135.717 59.1273 135.717 60.4702C135.717 61.9113 135.244 63.0506 134.315 63.8995C133.38 64.7424 132.108 65.1608 130.533 65.1608H129.469Z"
            fill="white" />
        <path fill-rule="evenodd" clip-rule="evenodd"
            d="M141.939 58.0458V71.5557H139.47V58.0458H135.717V55.8135H145.692V58.0458H141.939Z"
            fill="white" />
        <path fill-rule="evenodd" clip-rule="evenodd"
            d="M147.118 71.5557H149.968V55.8135H147.118V71.5557Z" fill="white" />
        <path fill-rule="evenodd" clip-rule="evenodd"
            d="M164.219 56.9176V59.6188C162.959 58.5146 161.646 57.9712 160.295 57.9712C158.817 57.9712 157.579 58.5261 156.543 59.6411C155.529 60.7562 155.011 62.1185 155.011 63.7265C155.011 65.3235 155.529 66.6629 156.543 67.7613C157.579 68.8488 158.828 69.4037 160.312 69.4037C161.08 69.4037 161.731 69.2688 162.265 69.0003C162.569 68.8712 162.879 68.703 163.205 68.4844C163.524 68.2491 163.856 67.98 164.219 67.6718V70.4401C162.964 71.1856 161.646 71.5557 160.28 71.5557C158.219 71.5557 156.453 70.7936 154.995 69.2803C153.544 67.7613 152.818 65.9181 152.818 63.7603C152.818 61.8213 153.415 60.1008 154.643 58.5875C156.138 56.7385 158.07 55.8135 160.445 55.8135C161.753 55.8135 162.996 56.1779 164.219 56.9176Z"
            fill="white" />
        <path fill-rule="evenodd" clip-rule="evenodd"
            d="M16.0093 62.8211C15.9725 64.9732 15.8131 66.8207 14.4885 68.657C13.0187 70.6786 10.8133 71.5557 8.31233 71.5557C3.61388 71.5557 0.333282 68.4009 0.333282 63.7585C0.333282 58.9633 3.62971 55.8135 8.45761 55.8135C11.529 55.8135 13.9113 57.1816 15.1952 59.9442L11.507 61.4753C10.9722 60.0586 9.83871 59.1212 8.27614 59.1212C5.71182 59.1212 4.38047 61.53 4.38047 63.7803C4.38556 66.0741 5.77457 68.4009 8.33437 68.4009C10.0224 68.4009 11.3086 67.5455 11.4731 65.8398H8.29819V62.8211H16.0093Z"
            fill="white" />
        <path fill-rule="evenodd" clip-rule="evenodd"
            d="M22.8659 62.8655H23.2528C24.5646 62.8655 26.0343 62.6216 26.0343 60.9078C26.0343 59.2 24.5646 58.9561 23.2528 58.9561H22.8659V62.8655ZM31.6852 71.5557H26.6899L22.9084 65.4971H22.8659V71.5557H18.8594V55.8135H24.8461C27.8968 55.8135 30.2155 57.2947 30.2155 60.6639C30.2155 62.825 29.0215 64.7071 26.8338 65.1081L31.6852 71.5557Z"
            fill="white" />
        <path fill-rule="evenodd" clip-rule="evenodd"
            d="M35.8728 63.426C35.8728 65.9759 37.8386 67.834 40.2372 67.834C42.6324 67.834 44.6017 65.9759 44.6017 63.426C44.6046 61.3882 42.6324 59.5352 40.2372 59.5352C37.8386 59.5352 35.8728 61.3882 35.8728 63.426ZM48.7863 63.4148C48.7863 68.1883 45.1951 71.5557 40.2372 71.5557C35.2776 71.5557 31.6852 68.1883 31.6852 63.4148C31.6852 58.9415 35.7846 55.8135 40.2372 55.8135C44.68 55.8135 48.7863 58.9415 48.7863 63.4148Z"
            fill="white" />
        <path fill-rule="evenodd" clip-rule="evenodd"
            d="M59.3855 60.0594C58.6443 59.4587 57.7054 59.0668 56.721 59.0668C55.9745 59.0668 55.0076 59.4858 55.0076 60.3129C55.0076 61.1842 56.087 61.5427 56.7834 61.7414L57.7981 62.039C59.9541 62.651 61.6121 63.7041 61.6121 66.119C61.6121 67.6079 61.2477 69.1295 60.0136 70.1391C58.8093 71.1311 57.1863 71.5557 55.6327 71.5557C53.6855 71.5557 51.7942 70.9165 50.2114 69.8466L51.9283 66.7203C52.9291 67.5695 54.1211 68.264 55.4904 68.264C56.4288 68.264 57.4394 67.801 57.4394 66.7587C57.4394 65.6673 55.8549 65.2867 55.0076 65.0496C52.4789 64.3602 50.8232 63.7204 50.8232 60.8256C50.8232 57.7987 53.0504 55.8135 56.1494 55.8135C57.7054 55.8135 59.6048 56.2934 60.9858 57.0376L59.3855 60.0594Z"
            fill="white" />
        <path fill-rule="evenodd" clip-rule="evenodd"
            d="M70.7846 60.0594C70.0423 59.4587 69.1005 59.0668 68.1248 59.0668C67.3866 59.0668 66.4057 59.4858 66.4057 60.3129C66.4057 61.1842 67.4834 61.5427 68.1797 61.7414L69.2031 62.039C71.3503 62.651 73.0129 63.7041 73.0129 66.119C73.0129 67.6079 72.6484 69.1295 71.4156 70.1391C70.2166 71.1311 68.5937 71.5557 67.0308 71.5557C65.0872 71.5557 63.1913 70.9165 61.6122 69.8466L63.3319 66.7203C64.3355 67.5695 65.5216 68.264 66.8967 68.264C67.8309 68.264 68.8328 67.801 68.8328 66.7587C68.8328 65.6673 67.2554 65.2867 66.4057 65.0496C63.883 64.3602 62.2256 63.7204 62.2256 60.8256C62.2256 57.7987 64.4527 55.8135 67.5487 55.8135C69.1005 55.8135 71.0126 56.2934 72.379 57.0376L70.7846 60.0594Z"
            fill="white" />
    </g>
    <defs>
        <clipPath id="clip0_30_2110">
            <rect width="165.667" height="71.5556" fill="white" transform="translate(0.333282)" />
        </clipPath>
    </defs>
</svg>