<svg width="1743" height="383" viewBox="0 0 1743 383" fill="none" xmlns="http://www.w3.org/2000/svg">
    <path
        d="M1151.81 109.01L1157.71 179.774L1154.76 170.339C1161.44 155.4 1170.88 142.623 1183.07 132.009C1195.25 121.394 1207.83 113.335 1220.81 107.831C1234.17 101.934 1245.38 98.9854 1254.42 98.9854L1251.47 159.135C1232.6 157.955 1216.09 161.494 1201.94 169.75C1188.18 178.005 1177.36 189.013 1169.5 202.773C1161.64 216.532 1157.71 231.275 1157.71 247V356.095H1097.56V109.01H1151.81Z"
        fill="white" />
    <path
        d="M881.259 361.993C858.064 361.993 837.031 357.275 818.161 347.84C799.291 338.012 784.351 323.466 773.344 304.202C762.336 284.939 756.832 261.154 756.832 232.848C756.832 204.936 762.532 180.955 773.933 160.905C785.727 140.855 801.06 125.523 819.93 114.908C839.194 103.9 860.03 98.3965 882.438 98.3965C906.026 98.3965 925.29 103.507 940.229 113.729C955.561 123.557 967.552 135.155 976.201 148.521L972.073 157.956L977.97 109.011H1033.99V356.096H973.252V294.177L979.739 308.92C978.167 312.065 974.825 316.586 969.714 322.483C964.603 327.987 957.724 333.884 949.075 340.174C940.819 346.464 930.99 351.771 919.59 356.096C908.582 360.027 895.805 361.993 881.259 361.993ZM897.771 312.458C910.744 312.458 922.342 310.099 932.563 305.382C942.785 300.664 951.433 293.981 958.51 285.332C965.586 276.683 970.5 266.461 973.252 254.667V203.363C970.107 192.356 964.8 182.92 957.33 175.058C949.861 166.802 940.819 160.315 930.204 155.598C919.983 150.88 908.582 148.521 896.002 148.521C881.849 148.521 868.875 152.059 857.081 159.136C845.287 165.819 835.852 175.254 828.776 187.441C821.699 199.629 818.161 213.781 818.161 229.9C818.161 245.232 821.699 259.188 828.776 271.769C836.245 284.349 846.074 294.374 858.261 301.843C870.448 308.92 883.618 312.458 897.771 312.458Z"
        fill="white" />
    <path
        d="M615.178 0.505859H675.917V109.601H741.964V157.366H675.917V356.096H615.178V157.366H571.54V109.601H615.178V0.505859Z"
        fill="white" />
    <path
        d="M448.27 361.403C430.186 361.403 412.692 358.258 395.787 351.967C378.882 345.284 364.926 335.652 353.918 323.072L379.865 288.869C390.479 298.698 401.094 306.167 411.709 311.278C422.716 315.996 433.135 318.355 442.963 318.355C450.826 318.355 457.902 317.568 464.192 315.996C470.482 314.03 475.593 310.885 479.524 306.56C483.456 302.236 485.421 296.536 485.421 289.459C485.421 281.203 482.669 274.717 477.166 269.999C471.662 265.281 464.585 261.35 455.936 258.205C447.287 255.06 438.049 252.111 428.22 249.359C407.384 242.676 391.659 233.241 381.044 221.054C370.43 208.473 365.122 193.731 365.122 176.826C365.122 163.853 368.267 151.666 374.558 140.265C381.241 128.471 391.266 118.839 404.632 111.369C417.999 103.9 434.51 100.165 454.167 100.165C472.251 100.165 488.173 102.327 501.933 106.652C515.693 110.583 528.47 117.463 540.264 127.291L516.676 163.853C509.599 156.776 501.147 151.469 491.318 147.931C481.883 144 473.234 141.837 465.372 141.444C458.295 141.444 451.808 142.624 445.911 144.982C440.014 146.948 435.297 150.093 431.759 154.418C428.22 158.349 426.451 163.066 426.451 168.57C426.058 176.433 428.613 182.92 434.117 188.031C440.014 192.748 447.484 196.679 456.526 199.825C465.568 202.576 474.414 205.525 483.063 208.67C495.25 212.208 506.061 217.122 515.496 223.413C524.931 229.31 532.401 236.583 537.905 245.232C543.409 253.88 546.161 264.888 546.161 278.255C546.161 292.801 542.622 306.56 535.546 319.534C528.47 332.114 517.658 342.336 503.112 350.198C488.566 357.668 470.286 361.403 448.27 361.403Z"
        fill="white" />
    <path
        d="M1742.51 359.827L1650.71 268.686L1655.8 270.329L1656.29 355.722H1638.56V232.723H1639.38L1730.03 324.028L1725.92 322.878L1725.59 236.5H1743V359.827H1742.51Z"
        fill="white" />
    <path
        d="M1498.74 296.276C1498.74 288.065 1500.27 280.292 1503.33 272.957C1506.51 265.622 1510.89 259.108 1516.47 253.415C1522.05 247.722 1528.51 243.288 1535.85 240.113C1543.18 236.829 1551.07 235.187 1559.5 235.187C1567.82 235.187 1575.64 236.829 1582.98 240.113C1590.31 243.288 1596.83 247.722 1602.52 253.415C1608.21 259.108 1612.65 265.622 1615.82 272.957C1619 280.292 1620.59 288.065 1620.59 296.276C1620.59 304.705 1619 312.588 1615.82 319.923C1612.65 327.258 1608.21 333.717 1602.52 339.301C1596.94 344.884 1590.42 349.263 1582.98 352.438C1575.64 355.504 1567.82 357.036 1559.5 357.036C1551.07 357.036 1543.18 355.504 1535.85 352.438C1528.51 349.373 1522.05 345.103 1516.47 339.629C1510.89 334.046 1506.51 327.586 1503.33 320.251C1500.27 312.807 1498.74 304.815 1498.74 296.276ZM1516.8 296.276C1516.8 302.406 1517.89 308.154 1520.08 313.518C1522.38 318.773 1525.5 323.426 1529.44 327.477C1533.39 331.418 1537.93 334.538 1543.07 336.837C1548.33 339.027 1553.97 340.122 1559.99 340.122C1565.9 340.122 1571.43 339.027 1576.57 336.837C1581.72 334.538 1586.21 331.418 1590.04 327.477C1593.98 323.426 1597.05 318.773 1599.24 313.518C1601.43 308.154 1602.52 302.406 1602.52 296.276C1602.52 290.145 1601.37 284.452 1599.07 279.197C1596.88 273.832 1593.82 269.125 1589.88 265.074C1586.04 261.023 1581.5 257.849 1576.25 255.55C1571.1 253.25 1565.57 252.101 1559.66 252.101C1553.53 252.101 1547.89 253.25 1542.75 255.55C1537.6 257.849 1533.06 261.023 1529.12 265.074C1525.17 269.125 1522.11 273.832 1519.92 279.197C1517.84 284.561 1516.8 290.254 1516.8 296.276Z"
        fill="white" />
    <path d="M1463.34 236.5H1480.91V355.722H1463.34V236.5Z" fill="white" />
    <path
        d="M1438.04 259.325C1433.88 257.135 1429.4 255.274 1424.58 253.742C1419.76 252.209 1415.11 251.442 1410.62 251.442C1404.49 251.442 1399.62 252.866 1396 255.712C1392.39 258.449 1390.59 262.226 1390.59 267.043C1390.59 270.437 1391.79 273.393 1394.2 275.911C1396.61 278.429 1399.73 280.619 1403.56 282.48C1407.39 284.341 1411.44 286.092 1415.71 287.735C1419.32 289.048 1422.88 290.636 1426.38 292.497C1430 294.249 1433.23 296.438 1436.07 299.066C1439.03 301.693 1441.33 304.978 1442.97 308.919C1444.72 312.751 1445.6 317.458 1445.6 323.042C1445.6 329.391 1444.01 335.139 1440.84 340.284C1437.77 345.43 1433.28 349.535 1427.37 352.601C1421.57 355.557 1414.51 357.035 1406.19 357.035C1401.15 357.035 1396.22 356.487 1391.41 355.392C1386.7 354.188 1382.21 352.655 1377.94 350.794C1373.78 348.824 1370 346.689 1366.61 344.39L1374.49 330.76C1377.12 332.621 1380.13 334.427 1383.52 336.179C1386.92 337.821 1390.42 339.135 1394.03 340.12C1397.76 341.105 1401.26 341.598 1404.54 341.598C1408.16 341.598 1411.71 340.996 1415.22 339.792C1418.72 338.478 1421.62 336.507 1423.92 333.88C1426.22 331.143 1427.37 327.585 1427.37 323.206C1427.37 319.483 1426.33 316.363 1424.25 313.845C1422.28 311.218 1419.6 308.974 1416.2 307.112C1412.92 305.251 1409.36 303.609 1405.53 302.186C1401.81 300.763 1398.03 299.175 1394.2 297.424C1390.37 295.672 1386.81 293.592 1383.52 291.183C1380.24 288.665 1377.56 285.6 1375.48 281.987C1373.51 278.265 1372.52 273.721 1372.52 268.357C1372.52 262.007 1374 256.479 1376.96 251.771C1380.02 246.954 1384.24 243.177 1389.6 240.44C1394.96 237.703 1401.15 236.17 1408.16 235.842C1416.15 235.842 1423.1 236.827 1429.01 238.798C1434.92 240.768 1440.18 243.122 1444.78 245.859L1438.04 259.325Z"
        fill="white" />
    <path d="M1333.18 236.5H1350.75V355.722H1333.18V236.5Z" fill="white" />
    <path
        d="M1233.39 236.5L1271.82 332.403L1261.8 330.597L1297.77 236.5H1318.46L1265.41 361.306L1212.54 236.5H1233.39Z"
        fill="white" />
    <path fill-rule="evenodd" clip-rule="evenodd"
        d="M181.641 65.8008C209.84 80.9113 232.208 104.978 245.218 134.205C258.229 163.433 261.141 196.159 253.497 227.225L207.97 216.022C213.127 195.066 211.162 172.988 202.385 153.272C193.609 133.555 178.519 117.32 159.496 107.127L181.641 65.8008ZM24.2955 338.291C12.9241 308.388 11.8287 275.55 21.1819 244.955C30.5352 214.361 49.8052 187.749 75.9538 169.316L102.967 207.637C85.3276 220.072 72.3282 238.024 66.0186 258.663C59.7089 279.302 60.4479 301.453 68.119 321.626L24.2955 338.291ZM138.611 366.118C166.879 381.1 199.329 386.247 230.846 380.748L222.788 334.561C201.527 338.27 179.636 334.798 160.567 324.691C141.498 314.585 126.334 298.419 117.468 278.743L74.7222 298.005C87.8658 327.173 110.343 351.136 138.611 366.118ZM315.587 201.431C310.858 233.072 295.733 262.24 272.596 284.335C249.459 306.43 219.626 320.196 187.801 323.463L183.013 276.823C204.482 274.619 224.607 265.333 240.215 250.428C255.823 235.522 266.026 215.846 269.216 194.501L315.587 201.431ZM83.3015 110.639C51.6176 115.072 22.3103 129.925 0 152.854L33.6036 185.55C48.6539 170.082 68.4244 160.063 89.7982 157.072C111.172 154.082 132.933 158.29 151.651 169.034L174.99 128.371C147.244 112.445 114.985 106.206 83.3015 110.639Z"
        fill="white" />
</svg>