<svg width="37" height="37" viewBox="0 0 37 37" fill="none" xmlns="http://www.w3.org/2000/svg">
    <path fill-rule="evenodd" clip-rule="evenodd"
        d="M20.9217 0C24.1698 1.74047 26.7462 4.51247 28.2447 7.87897C29.7433 11.2455 30.0788 15.015 29.1983 18.5932L23.9544 17.3029C24.5483 14.889 24.322 12.3461 23.3111 10.0751C22.3002 7.80409 20.5622 5.93413 18.3711 4.76002L20.9217 0ZM2.79835 31.3864C1.48856 27.9421 1.36238 24.1598 2.43972 20.6358C3.51705 17.1118 5.73661 14.0466 8.74847 11.9235L11.8599 16.3374C9.82817 17.7696 8.33087 19.8374 7.60411 22.2146C6.87735 24.5919 6.96246 27.1434 7.84604 29.4669L2.79835 31.3864ZM15.9655 34.5917C19.2215 36.3173 22.9592 36.9102 26.5893 36.2768L25.6611 30.9568C23.2123 31.3841 20.6909 30.9841 18.4944 29.8201C16.298 28.656 14.5514 26.7939 13.5302 24.5276L8.60661 26.7462C10.1205 30.1058 12.7096 32.866 15.9655 34.5917ZM36.35 15.6223C35.8053 19.2668 34.0632 22.6263 31.3982 25.1713C28.7332 27.7163 25.297 29.3019 21.6313 29.6782L21.0798 24.3061C23.5527 24.0522 25.8707 22.9826 27.6685 21.2658C29.4663 19.5489 30.6415 17.2826 31.0089 14.8241L36.35 15.6223ZM9.59487 5.16477C5.94544 5.67538 2.56975 7.38608 0 10.0272L3.87054 13.7932C5.60407 12.0115 7.88129 10.8575 10.3432 10.513C12.805 10.1686 15.3115 10.6533 17.4675 11.8908L20.1558 7.2071C16.9599 5.3727 13.2443 4.65417 9.59487 5.16477Z"
        fill="white" />
</svg>