<svg width="236" height="205" viewBox="0 0 236 205" fill="none" xmlns="http://www.w3.org/2000/svg">
    <path fill-rule="evenodd" clip-rule="evenodd"
        d="M93.9477 0C123.747 15.968 147.384 41.3998 161.133 72.2859C174.881 103.172 177.959 137.756 169.881 170.584L121.771 158.746C127.22 136.6 125.144 113.27 115.869 92.4344C106.594 71.5989 90.6489 54.4428 70.5466 43.6709L93.9477 0ZM-72.3255 287.953C-84.3422 256.353 -85.4998 221.652 -75.6158 189.321C-65.7317 156.99 -45.3683 128.868 -17.7359 109.39L10.8104 149.885C-7.8302 163.025 -21.5672 181.996 -28.2349 203.806C-34.9026 225.616 -34.1217 249.025 -26.0153 270.342L-72.3255 287.953ZM48.4768 317.359C78.3487 333.191 112.64 338.63 145.945 332.82L137.43 284.011C114.962 287.931 91.8296 284.262 71.6783 273.582C51.5269 262.902 35.5033 245.819 26.1336 225.026L-19.0376 245.381C-5.1482 276.204 18.6049 301.527 48.4768 317.359ZM235.494 143.327C230.497 176.763 214.514 207.586 190.064 230.935C165.614 254.284 134.088 268.831 100.457 272.283L95.3976 222.997C118.085 220.668 139.352 210.854 155.846 195.103C172.339 179.352 183.122 158.56 186.493 136.004L235.494 143.327ZM-9.97157 47.3827C-43.4534 52.0673 -74.4237 67.7622 -98 91.9931L-62.4896 126.544C-46.5853 110.198 -25.6929 99.6105 -3.10632 96.4504C19.4802 93.2902 42.4762 97.7373 62.256 109.09L86.9201 66.1202C57.5989 49.2904 23.5102 42.6982 -9.97157 47.3827Z"
        fill="white" />
</svg>