<svg width="1452" height="274" viewBox="0 0 1452 274" fill="none" xmlns="http://www.w3.org/2000/svg">
    <path
        d="M843.17 114.661L849.402 189.441L846.286 179.47C853.349 163.683 863.319 150.181 876.198 138.965C889.077 127.748 902.371 119.231 916.08 113.415C930.205 107.183 942.046 104.067 951.601 104.067L948.485 167.63C928.544 166.384 911.095 170.123 896.139 178.847C881.599 187.571 870.174 199.204 861.865 213.744C853.556 228.285 849.402 243.864 849.402 260.481V375.767H785.839V114.661H843.17Z"
        fill="white" />
    <path
        d="M557.265 382C532.754 382 510.528 377.015 490.586 367.044C470.645 356.658 454.858 341.287 443.226 320.93C431.593 300.573 425.777 275.439 425.777 245.527C425.777 216.031 431.801 190.689 443.849 169.501C456.312 148.314 472.515 132.111 492.456 120.894C512.812 109.262 534.831 103.446 558.511 103.446C583.438 103.446 603.794 108.847 619.581 119.648C635.783 130.034 648.454 142.29 657.594 156.415L653.232 166.385L659.464 114.663H718.664V375.768H654.478V310.336L661.333 325.915C659.671 329.239 656.14 334.016 650.739 340.248C645.339 346.064 638.068 352.296 628.929 358.943C620.204 365.59 609.818 371.198 597.77 375.768C586.138 379.923 572.636 382 557.265 382ZM574.713 329.654C588.423 329.654 600.679 327.161 611.48 322.176C622.282 317.191 631.421 310.128 638.899 300.989C646.377 291.849 651.57 281.047 654.478 268.584V214.369C651.155 202.737 645.546 192.766 637.653 184.457C629.759 175.733 620.204 168.878 608.987 163.893C598.186 158.907 586.138 156.415 572.844 156.415C557.888 156.415 544.178 160.154 531.715 167.632C519.252 174.694 509.281 184.665 501.803 197.543C494.325 210.422 490.586 225.378 490.586 242.411C490.586 258.613 494.325 273.362 501.803 286.656C509.697 299.95 520.083 310.544 532.961 318.437C545.84 325.915 559.757 329.654 574.713 329.654Z"
        fill="white" />
    <path
        d="M276.085 0H340.271V115.285H410.066V165.761H340.271V375.768H276.085V165.761H229.971V115.285H276.085V0Z"
        fill="white" />
    <path
        d="M99.7062 381.376C80.5958 381.376 62.1086 378.052 44.2446 371.405C26.3806 364.343 11.6324 354.164 0 340.87L27.4192 304.727C38.6361 315.113 49.8531 323.006 61.07 328.407C72.7024 333.392 83.7116 335.885 94.0977 335.885C102.407 335.885 109.884 335.054 116.532 333.392C123.179 331.315 128.579 327.991 132.734 323.422C136.888 318.852 138.965 312.828 138.965 305.35C138.965 296.626 136.057 289.771 130.241 284.785C124.425 279.8 116.947 275.646 107.807 272.322C98.6675 268.999 88.9046 265.883 78.5186 262.975C56.5002 255.912 39.8825 245.942 28.6655 233.063C17.4486 219.769 11.8401 204.19 11.8401 186.326C11.8401 172.616 15.1636 159.737 21.8107 147.69C28.8732 135.226 39.467 125.048 53.5921 117.155C67.7171 109.261 85.1657 105.314 105.938 105.314C125.048 105.314 141.874 107.599 156.414 112.169C170.955 116.324 184.456 123.594 196.92 133.98L171.993 172.616C164.515 165.138 155.583 159.53 145.197 155.791C135.226 151.636 126.087 149.351 117.778 148.936C110.3 148.936 103.445 150.182 97.2135 152.675C90.9819 154.752 85.9966 158.076 82.2576 162.645C78.5186 166.8 76.6491 171.785 76.6491 177.601C76.2337 185.91 78.934 192.765 84.7502 198.166C90.9819 203.151 98.8753 207.306 108.43 210.629C117.986 213.537 127.333 216.653 136.473 219.977C149.352 223.715 160.776 228.909 170.747 235.556C180.717 241.787 188.611 249.473 194.427 258.613C200.243 267.752 203.151 279.385 203.151 293.51C203.151 308.881 199.412 323.422 191.934 337.131C184.456 350.425 173.032 361.227 157.66 369.536C142.289 377.429 122.971 381.376 99.7062 381.376Z"
        fill="white" />
    <path
        d="M1467.38 342.965L1370.38 246.652L1375.76 248.387L1376.28 338.626H1357.54V208.647H1358.4L1454.19 305.134L1449.86 303.919L1449.51 212.639H1467.9V342.965H1467.38Z"
        fill="white" />
    <path
        d="M1209.78 275.806C1209.78 267.13 1211.4 258.916 1214.64 251.164C1217.99 243.413 1222.62 236.529 1228.52 230.514C1234.42 224.498 1241.25 219.812 1249 216.457C1256.75 212.986 1265.08 211.251 1273.99 211.251C1282.78 211.251 1291.05 212.986 1298.8 216.457C1306.55 219.812 1313.44 224.498 1319.45 230.514C1325.47 236.529 1330.16 243.413 1333.51 251.164C1336.87 258.916 1338.54 267.13 1338.54 275.806C1338.54 284.715 1336.87 293.044 1333.51 300.796C1330.16 308.547 1325.47 315.373 1319.45 321.273C1313.55 327.173 1306.67 331.801 1298.8 335.156C1291.05 338.395 1282.78 340.015 1273.99 340.015C1265.08 340.015 1256.75 338.395 1249 335.156C1241.25 331.917 1234.42 327.405 1228.52 321.62C1222.62 315.72 1217.99 308.894 1214.64 301.143C1211.4 293.276 1209.78 284.83 1209.78 275.806ZM1228.87 275.806C1228.87 282.285 1230.03 288.359 1232.34 294.028C1234.77 299.581 1238.07 304.498 1242.23 308.778C1246.4 312.943 1251.2 316.24 1256.63 318.67C1262.19 320.984 1268.15 322.141 1274.51 322.141C1280.76 322.141 1286.6 320.984 1292.04 318.67C1297.47 316.24 1302.22 312.943 1306.27 308.778C1310.43 304.498 1313.67 299.581 1315.98 294.028C1318.3 288.359 1319.45 282.285 1319.45 275.806C1319.45 269.328 1318.24 263.312 1315.81 257.759C1313.5 252.09 1310.26 247.115 1306.09 242.835C1302.04 238.554 1297.24 235.199 1291.69 232.769C1286.25 230.34 1280.41 229.125 1274.16 229.125C1267.68 229.125 1261.72 230.34 1256.29 232.769C1250.85 235.199 1246.05 238.554 1241.88 242.835C1237.72 247.115 1234.48 252.09 1232.17 257.759C1229.97 263.428 1228.87 269.443 1228.87 275.806Z"
        fill="white" />
    <path d="M1172.38 212.639H1190.94V338.627H1172.38V212.639Z" fill="white" />
    <path
        d="M1145.64 236.76C1141.25 234.446 1136.5 232.479 1131.41 230.86C1126.32 229.24 1121.41 228.43 1116.66 228.43C1110.18 228.43 1105.04 229.934 1101.22 232.942C1097.4 235.835 1095.49 239.826 1095.49 244.916C1095.49 248.503 1096.76 251.626 1099.31 254.287C1101.85 256.948 1105.15 259.262 1109.2 261.229C1113.25 263.195 1117.53 265.046 1122.04 266.782C1125.86 268.17 1129.62 269.848 1133.32 271.814C1137.14 273.665 1140.55 275.979 1143.56 278.756C1146.68 281.532 1149.11 285.003 1150.85 289.168C1152.7 293.217 1153.63 298.192 1153.63 304.092C1153.63 310.802 1151.95 316.876 1148.59 322.313C1145.35 327.751 1140.61 332.089 1134.36 335.329C1128.23 338.452 1120.77 340.014 1111.98 340.014C1106.66 340.014 1101.45 339.436 1096.36 338.279C1091.38 337.006 1086.64 335.387 1082.13 333.42C1077.73 331.337 1073.74 329.081 1070.16 326.652L1078.49 312.248C1081.26 314.215 1084.44 316.124 1088.03 317.975C1091.62 319.71 1095.32 321.099 1099.14 322.14C1103.07 323.181 1106.77 323.702 1110.24 323.702C1114.06 323.702 1117.82 323.065 1121.52 321.793C1125.22 320.405 1128.29 318.322 1130.72 315.546C1133.15 312.653 1134.36 308.893 1134.36 304.266C1134.36 300.332 1133.26 297.035 1131.07 294.374C1128.98 291.598 1126.15 289.226 1122.56 287.259C1119.09 285.292 1115.33 283.557 1111.28 282.053C1107.35 280.549 1103.36 278.872 1099.31 277.02C1095.26 275.169 1091.5 272.971 1088.03 270.426C1084.56 267.765 1081.72 264.526 1079.53 260.708C1077.44 256.775 1076.4 251.973 1076.4 246.305C1076.4 239.594 1077.96 233.752 1081.09 228.777C1084.33 223.687 1088.78 219.696 1094.45 216.803C1100.12 213.911 1106.66 212.291 1114.06 211.944C1122.51 211.944 1129.85 212.986 1136.1 215.068C1142.35 217.15 1147.9 219.638 1152.76 222.53L1145.64 236.76Z"
        fill="white" />
    <path d="M1034.83 212.639H1053.4V338.627H1034.83V212.639Z" fill="white" />
    <path
        d="M929.378 212.639L969.986 313.984L959.4 312.075L997.405 212.639H1019.27L963.218 344.527L907.339 212.639H929.378Z"
        fill="white" />
</svg>