<svg width="289" height="53" viewBox="0 0 289 53" fill="none" xmlns="http://www.w3.org/2000/svg">
<g clip-path="url(#clip0_149_3066)">
<path d="M208.614 21.6894C208.614 19.2362 206.973 16.751 203.84 16.751H198.522V31.6142H200.912V19.2202H203.835C205.369 19.2202 206.192 20.4841 206.192 21.6894C206.192 22.788 205.45 23.9826 203.835 23.9826H201.267V24.1746L201.316 25.2839L206.504 31.6142H209.632L205.137 26.1745C207.263 25.6625 208.614 23.9346 208.614 21.6894Z" fill="white"/>
<path d="M221.365 26.0144C220.692 28.0357 218.986 29.2943 216.898 29.2943C215.606 29.2943 214.32 28.7503 213.464 27.8437C212.592 26.9104 212.107 25.6625 212.107 24.3185C212.107 22.9693 212.603 21.716 213.491 20.772C214.384 19.8121 215.665 19.2414 216.903 19.2414C218.975 19.2414 220.563 20.3827 221.263 22.3986L221.306 22.5266H223.701L223.647 22.292C222.813 18.9588 220.17 16.8096 216.909 16.8096C215.057 16.8096 213.146 17.6469 211.801 19.0601C210.487 20.4841 209.761 22.356 209.761 24.3185C209.761 26.2011 210.525 28.105 211.865 29.5503C213.162 30.9262 214.998 31.7262 216.909 31.7262C220.224 31.7262 222.904 29.5236 223.749 26.1211L223.803 25.8811H221.43L221.365 26.0144Z" fill="white"/>
<path d="M228.029 25.3477H234.407V22.8784H228.029V19.2413H234.536V16.7881H225.591V31.614H234.558V29.1661H228.029V25.3477Z" fill="white"/>
<path d="M239.267 16.9321H236.845V31.6141H245.876V29.1662H239.267V16.9321Z" fill="white"/>
<path d="M253.363 16.6494C249.235 16.6494 245.871 20.0679 245.871 24.281C245.871 28.4728 249.235 31.8806 253.363 31.8806C257.502 31.8806 260.866 28.4728 260.866 24.281C260.866 20.0626 257.502 16.6494 253.363 16.6494ZM253.363 29.3688C250.554 29.3688 248.358 27.1289 248.358 24.281C248.358 21.4492 250.608 19.1613 253.363 19.1613C256.135 19.1613 258.39 21.4545 258.39 24.281C258.39 27.0862 256.135 29.3688 253.363 29.3688Z" fill="white"/>
<path d="M271.281 26.569L264.736 16.9321H262.874V31.6141H265.291V22.0732L271.782 31.6141H273.687V16.9321H271.281V26.569Z" fill="white"/>
<path d="M283.214 16.751H281.449L275.657 31.6196H278.273L279.635 27.9984H285.066L286.411 31.6196H289L283.214 16.751ZM280.512 25.6785L282.347 20.7881L284.172 25.6785H280.512Z" fill="white"/>
<path d="M162.708 23.6146C162.875 10.7512 152.498 0.175777 139.521 -0.000214356C126.539 -0.176206 115.86 10.1006 115.688 22.9693C115.51 35.8327 125.887 46.4028 138.875 46.5788C151.857 46.7654 162.53 36.4833 162.708 23.6146ZM138.999 37.8485C130.877 37.7419 124.396 31.1289 124.509 23.092C124.612 15.0497 131.286 8.62335 139.397 8.73001C147.514 8.84734 154.005 15.4497 153.892 23.4919C153.773 31.5342 147.105 37.9552 138.999 37.8485Z" fill="white"/>
<path d="M161.201 41.6402C158.026 41.5975 155.426 44.1041 155.389 47.2399C155.335 50.3757 157.875 52.9463 161.035 52.9996C164.199 53.0476 166.81 50.5304 166.853 47.3946C166.891 44.2587 164.361 41.6828 161.201 41.6402Z" fill="white"/>
<path d="M181.277 23.5131C182.413 22.4998 182.806 20.9319 182.289 19.4386C181.735 17.828 180.255 16.7881 178.527 16.7881H172.493V31.614H179.038C181.832 31.614 183.301 29.3475 183.301 27.1076C183.301 25.5183 182.558 24.1957 181.277 23.5131ZM174.888 19.1346H178.527C178.99 19.1346 179.383 19.3106 179.652 19.6466C179.899 19.9453 180.028 20.3559 180.028 20.8092C180.028 21.7158 179.501 22.6331 178.489 22.6331H174.894V19.1346H174.888ZM179.038 29.2301H174.888V25.065H179.038C180.308 25.065 180.895 26.1423 180.895 27.1342C180.895 28.1742 180.249 29.2301 179.038 29.2301Z" fill="white"/>
<path d="M189.486 16.751L183.694 31.6196H186.299L187.661 27.9984H193.103L194.448 31.6196H197.032L191.246 16.751H189.486ZM188.56 25.6785L190.385 20.7881L192.209 25.6785H188.56Z" fill="white"/>
<path d="M12.5355 11.9141C6.49112 11.9141 0 15.7539 0 24.1961C0 32.4997 6.34579 36.4195 12.2341 36.5368H12.4709C17.8909 36.5368 22.4767 33.5716 24.2313 28.9425H16.8091C15.7811 30.0145 14.2848 30.6065 12.5839 30.6065C10.0865 30.5638 7.93359 29.1612 7.12623 27.06L7.02935 26.7986H24.7965C24.9633 25.9347 25.0387 25.0761 25.0387 24.1908C25.0441 15.8179 18.6176 11.9514 12.5355 11.9141ZM7.32538 21.6362L7.40073 21.3909C8.10582 19.0764 9.9735 17.6951 12.4063 17.6951C15.0544 17.6951 16.9436 19.0444 17.5949 21.3909L17.6703 21.6362H7.32538Z" fill="white"/>
<path d="M38.3335 31.0648C36.0622 31.0648 34.8134 29.9875 34.8134 28.0356V18.2281H39.9536V12.5377H34.8134V7.2793L28.0586 7.88193V28.0356C28.0586 33.8486 30.8305 36.6751 36.5412 36.6751H36.6865C37.7576 36.6751 38.9632 36.5685 40.3949 36.3338L40.1904 30.8781C39.5553 31.0008 38.904 31.0648 38.3335 31.0648Z" fill="white"/>
<path d="M58.172 11.9087C55.9115 11.9087 52.8435 12.378 51.0512 14.6232L50.696 15.0552V12.266H43.8496V36.2648H51.0673V23.2095C51.0673 20.0576 53.597 18.1057 55.9491 18.1057C57.9352 18.1057 59.9644 19.647 59.9644 23.0761V36.2648H66.8592V23.0335C66.9076 15.6205 64.0657 11.9834 58.172 11.9087Z" fill="white"/>
<path d="M77.4632 12.2656H70.5684V36.2644H77.4632V12.2656Z" fill="white"/>
<path d="M98.9166 15.1615L98.5614 14.7135C97.1189 12.8683 94.9121 11.855 92.3501 11.855C83.8191 11.855 80.7027 18.0467 80.6274 23.8384C80.6004 27.6409 81.9137 31.1447 84.2335 33.4646C86.2788 35.5071 89.0561 36.5844 92.264 36.5844C94.9982 36.5844 97.1189 35.6831 98.5614 33.9072L98.9166 33.4859V36.2644H105.666V12.2656H98.9166V15.1615ZM93.1144 30.1581C91.5481 30.1581 90.181 29.6194 89.1638 28.5955C88.0173 27.4595 87.3876 25.7849 87.4145 24.0144C87.4576 21.1292 89.2606 18.0093 93.1144 18.0093C96.3115 18.0093 98.9112 20.7505 98.9112 24.105C98.9166 27.4489 96.3115 30.1581 93.1144 30.1581Z" fill="white"/>
<path d="M74.0183 0.708984C71.7685 0.708984 69.9385 2.52223 69.9385 4.75145C69.9385 6.986 71.7739 8.79391 74.0183 8.79391C76.2735 8.79391 78.1089 6.986 78.1089 4.75145C78.1035 2.52223 76.2735 0.708984 74.0183 0.708984Z" fill="white"/>
</g>
<defs>
<clipPath id="clip0_149_3066">
<rect width="289" height="53" fill="white"/>
</clipPath>
</defs>
</svg>
