<svg width="324" height="59" viewBox="0 0 324 59" fill="none" xmlns="http://www.w3.org/2000/svg">
    <g clip-path="url(#clip0_3_125)">
        <path
            d="M233.879 24.145C233.879 21.4141 232.039 18.6475 228.527 18.6475H222.565V35.1934H225.244V21.3963H228.521C230.241 21.3963 231.164 22.8033 231.164 24.145C231.164 25.368 230.331 26.6978 228.521 26.6978H225.643V26.9116L225.697 28.1464L231.514 35.1934H235.02L229.981 29.1379C232.365 28.5679 233.879 26.6444 233.879 24.145Z"
            fill="#e21c1f" />
        <path
            d="M248.174 28.9598C247.42 31.2098 245.507 32.6109 243.166 32.6109C241.718 32.6109 240.276 32.0053 239.316 30.9961C238.339 29.9571 237.795 28.5679 237.795 27.0719C237.795 25.5698 238.351 24.1747 239.346 23.1239C240.348 22.0553 241.784 21.42 243.172 21.42C245.495 21.42 247.275 22.6905 248.06 24.9346L248.108 25.0771H250.793L250.733 24.8159C249.797 21.1054 246.835 18.7128 243.178 18.7128C241.102 18.7128 238.96 19.6449 237.452 21.2182C235.979 22.8033 235.165 24.8871 235.165 27.0719C235.165 29.1675 236.021 31.287 237.524 32.8959C238.978 34.4276 241.036 35.3181 243.178 35.3181C246.895 35.3181 249.9 32.8662 250.847 29.0785L250.908 28.8113H248.247L248.174 28.9598Z"
            fill="#e21c1f" />
        <path
            d="M255.645 28.2177H262.795V25.4689H255.645V21.42H262.94V18.6891H252.911V35.1934H262.964V32.4684H255.645V28.2177Z"
            fill="#e21c1f" />
        <path d="M268.244 18.8494H265.529V35.1934H275.654V32.4684H268.244V18.8494Z" fill="#e21c1f" />
        <path
            d="M284.048 18.5347C279.419 18.5347 275.648 22.3402 275.648 27.0303C275.648 31.6966 279.419 35.4903 284.048 35.4903C288.688 35.4903 292.459 31.6966 292.459 27.0303C292.459 22.3343 288.688 18.5347 284.048 18.5347ZM284.048 32.694C280.898 32.694 278.436 30.2006 278.436 27.0303C278.436 23.8779 280.958 21.331 284.048 21.331C287.155 21.331 289.683 23.8838 289.683 27.0303C289.683 30.1531 287.155 32.694 284.048 32.694Z"
            fill="#e21c1f" />
        <path
            d="M304.135 29.5772L296.798 18.8494H294.71V35.1934H297.419V24.5724L304.697 35.1934H306.833V18.8494H304.135V29.5772Z"
            fill="#e21c1f" />
        <path
            d="M317.513 18.6475H315.534L309.041 35.1993H311.974L313.501 31.1683H319.589L321.098 35.1993H324L317.513 18.6475ZM314.484 28.5857L316.542 23.1417L318.587 28.5857H314.484Z"
            fill="#e21c1f" />
        <path
            d="M182.414 26.2882C182.601 11.9686 170.967 0.195922 156.418 7.24476e-06C141.864 -0.195907 129.892 11.2443 129.699 25.5698C129.5 39.8894 141.134 51.6562 155.694 51.8521C170.249 52.0599 182.215 40.6137 182.414 26.2882ZM155.833 42.1335C146.727 42.0148 139.462 34.6532 139.589 25.7064C139.704 16.7537 147.186 9.59983 156.28 9.71856C165.379 9.84917 172.656 17.1989 172.53 26.1516C172.397 35.1044 164.921 42.2523 155.833 42.1335Z"
            fill="#e21c1f" />
        <path
            d="M180.724 46.3546C177.164 46.3071 174.249 49.0974 174.207 52.5883C174.147 56.0791 176.995 58.9406 180.537 59C184.085 59.0534 187.012 56.2513 187.06 52.7604C187.102 49.2696 184.266 46.4021 180.724 46.3546Z"
            fill="#e21c1f" />
        <path
            d="M203.232 26.1754C204.505 25.0474 204.945 23.302 204.366 21.6397C203.744 19.8468 202.085 18.6891 200.148 18.6891H193.384V35.1934H200.721C203.853 35.1934 205.5 32.6703 205.5 30.1768C205.5 28.4076 204.668 26.9353 203.232 26.1754ZM196.069 21.3013H200.148C200.667 21.3013 201.108 21.4972 201.409 21.8712C201.687 22.2037 201.832 22.6608 201.832 23.1654C201.832 24.1747 201.24 25.1958 200.106 25.1958H196.075V21.3013H196.069ZM200.721 32.5397H196.069V27.903H200.721C202.145 27.903 202.803 29.1023 202.803 30.2065C202.803 31.3642 202.079 32.5397 200.721 32.5397Z"
            fill="#e21c1f" />
        <path
            d="M212.434 18.6475L205.941 35.1993H208.862L210.388 31.1683H216.489L217.997 35.1993H220.894L214.407 18.6475H212.434ZM211.396 28.5857L213.442 23.1417L215.487 28.5857H211.396Z"
            fill="#e21c1f" />
        <path
            d="M14.0536 13.2628C7.27724 13.2628 0 17.5373 0 26.9353C0 36.1789 7.11432 40.5425 13.7157 40.6731H13.9812C20.0577 40.6731 25.1988 37.3722 27.1659 32.2191H18.8448C17.6923 33.4124 16.0148 34.0714 14.1079 34.0714C11.3081 34.0239 8.8944 32.4625 7.98927 30.1234L7.88066 29.8325H27.7995C27.9866 28.8707 28.0711 27.9149 28.0711 26.9294C28.0771 17.6086 20.8723 13.3044 14.0536 13.2628ZM8.21254 24.0856L8.29702 23.8126C9.0875 21.236 11.1814 19.6983 13.9088 19.6983C16.8776 19.6983 18.9956 21.2004 19.7258 23.8126L19.8103 24.0856H8.21254Z"
            fill="#e21c1f" />
        <path
            d="M42.9756 34.5819C40.4291 34.5819 39.0292 33.3827 39.0292 31.2098V20.292H44.7919V13.9574H39.0292V8.10374L31.4563 8.7746V31.2098C31.4563 37.6809 34.5639 40.8274 40.9662 40.8274H41.1291C42.3299 40.8274 43.6816 40.7087 45.2867 40.4475L45.0574 34.3741C44.3453 34.5107 43.6152 34.5819 42.9756 34.5819Z"
            fill="#e21c1f" />
        <path
            d="M65.2175 13.2569C62.6832 13.2569 59.2437 13.7793 57.2343 16.2787L56.836 16.7596V13.6547H49.1605V40.3703H57.2524V25.837C57.2524 22.3283 60.0884 20.1555 62.7254 20.1555C64.952 20.1555 67.2269 21.8712 67.2269 25.6886V40.3703H74.9567V25.6411C75.011 17.3889 71.825 13.34 65.2175 13.2569Z"
            fill="#e21c1f" />
        <path d="M86.8441 13.6547H79.1143V40.3703H86.8441V13.6547Z" fill="#e21c1f" />
        <path
            d="M110.896 16.8784L110.498 16.3797C108.881 14.3255 106.407 13.1975 103.535 13.1975C93.9705 13.1975 90.4767 20.0902 90.3922 26.5375C90.362 30.7705 91.8343 34.671 94.4351 37.2535C96.7281 39.5273 99.8417 40.7265 103.438 40.7265C106.503 40.7265 108.881 39.7232 110.498 37.7462L110.896 37.2772V40.3703H118.463V13.6547H110.896V16.8784ZM104.392 33.5727C102.636 33.5727 101.103 32.973 99.9624 31.8332C98.6771 30.5686 97.9711 28.7045 98.0013 26.7335C98.0496 23.5217 100.071 20.0486 104.392 20.0486C107.976 20.0486 110.89 23.1001 110.89 26.8344C110.896 30.5568 107.976 33.5727 104.392 33.5727Z"
            fill="#e21c1f" />
        <path
            d="M82.9822 0.789597C80.46 0.789597 78.4083 2.80811 78.4083 5.2897C78.4083 7.77722 80.466 9.7898 82.9822 9.7898C85.5106 9.7898 87.5682 7.77722 87.5682 5.2897C87.5622 2.80811 85.5106 0.789597 82.9822 0.789597Z"
            fill="#e21c1f" />
    </g>
    <defs>
        <clipPath id="clip0_3_125">
            <rect width="324" height="59" fill="white" />
        </clipPath>
    </defs>
</svg>