<svg width="485" height="105" viewBox="0 0 485 105" fill="none" xmlns="http://www.w3.org/2000/svg">
    <g clip-path="url(#clip0_64_1347)">
        <path
            d="M468.662 28.2528C468.323 32.4987 467.167 35.7299 465.022 38.427C462.37 41.8184 458.73 43.8746 453.961 44.7559C451.986 45.103 449.982 45.3166 448.007 45.3166C444.734 45.3433 422.188 45.3433 422.188 45.3433V9.15946C422.188 9.15946 441.432 9.15946 447.443 9.15946C451.28 9.15946 454.525 9.69354 457.432 10.8151C464.966 13.6724 469.283 20.3751 468.662 28.2528ZM479.018 22.2978C477.635 13.3253 472.415 6.83622 463.555 2.96414C458.984 0.988047 453.735 0 447.499 0H411.861V44.836C411.861 50.4972 416.77 54.5295 422.075 54.5295H447.64C452.099 54.5295 456.021 54.0221 459.576 53.0074C468.606 50.4438 474.616 45.1831 477.494 37.3589C479.3 32.5254 479.808 27.4517 479.018 22.2978Z"
            fill="#A41223" />
        <path
            d="M70.0073 54.5295C64.8717 54.5295 59.7079 50.7375 59.7079 44.836V16.957L35.0177 47.1325L10.2993 16.957V44.8093C10.2993 50.7375 5.10734 54.5028 0 54.5028V0C6.46178 0 11.5409 3.09766 14.4755 6.67599C16.0839 8.62538 34.9895 31.484 34.9895 31.484C34.9895 31.484 53.8952 8.62538 55.5035 6.67599C58.4382 3.09766 63.5173 0 70.0073 0V54.5295Z"
            fill="#A41223" />
        <path
            d="M149.637 47.2393V45.4502H103.388V31.8044H138.745C142.357 31.8044 146.081 29.0806 146.081 24.5142V22.7251H103.388V9.07935H142.272C145.884 9.07935 149.608 6.35555 149.608 1.78917V0H93.0891V54.5295H142.3C145.884 54.5295 149.637 51.8057 149.637 47.2393Z"
            fill="#A41223" />
        <path
            d="M221.563 9.66684C221.563 3.79196 226.614 0 231.834 0V54.5295H227.178C222.268 54.5295 219.334 51.6989 219.305 51.6722L179.857 14.4736V44.836C179.857 49.9631 175.597 54.5295 169.586 54.5295V0H174.242C179.152 0 182.087 2.85732 182.115 2.91073L221.563 40.1094V9.66684Z"
            fill="#A41223" />
        <path
            d="M299.951 33.5135L300.43 33.38C305.002 32.2317 308.444 30.2289 310.899 27.238C313.721 23.8199 314.878 19.7609 314.398 14.8741C313.749 8.14471 309.996 3.63174 303.252 1.46872C299.302 0.213632 295.295 0.026704 292.247 0.026704C281.581 0 257.173 0 254.182 0L254.154 54.5295C260.164 54.5295 264.397 49.883 264.397 44.836C264.397 41.1775 264.425 34.2612 264.425 34.2612H286.688C286.688 34.2612 302.208 50.1234 303.111 51.058C306.13 54.1557 309.178 54.5028 311.322 54.5028H320.606L299.951 33.5135ZM292.699 25.1551H264.425V9.15946H292.642C295.154 9.15946 297.016 9.4265 298.709 10.014C301.982 11.1623 303.675 13.2452 303.845 16.3695C304.042 19.6808 302.659 22.0842 299.612 23.6864C297.778 24.6745 295.577 25.1551 292.699 25.1551Z"
            fill="#A41223" />
        <path
            d="M400.376 54.5295L369.958 0H364.568C358.614 0 355.906 4.56638 355.877 4.59308L328.055 54.5295H333.783C335.674 54.5295 340.132 54.0488 342.926 49.1887C345.719 44.3286 348.174 39.9224 348.174 39.9224H380.257C380.257 39.9224 382.74 44.3019 385.506 49.1887C388.299 54.0488 392.757 54.5295 394.648 54.5295H400.376ZM365.302 30.7363H363.073H352.971L364.202 10.3344L375.432 30.7363H365.302Z"
            fill="#A41223" />
        <path d="M118.146 82.9959H124.975V99.4456H126.724V82.9959H133.553V81.4204H118.146V82.9959Z"
            fill="#757474" />
        <path
            d="M161.996 89.5918H149.862V81.4204H148.113V99.4456H149.862V91.1674H161.996V99.4456H163.717V81.4204H161.996V89.5918Z"
            fill="#757474" />
        <path
            d="M181.24 91.1407H192.217V89.6185H181.24V82.9959H192.527V81.4204H179.491V99.4456H192.64V97.8968H181.24V91.1407Z"
            fill="#757474" />
        <path
            d="M231.919 97.7632L224.864 81.4471L224.836 81.4204H223.002L230.818 99.4189L230.846 99.4456H232.934L240.751 81.5005L240.779 81.4204H239.001L231.919 97.7632Z"
            fill="#757474" />
        <path d="M255.931 81.447H254.267V99.4455H255.931V81.447Z" fill="#757474" />
        <path
            d="M279.07 89.7787L277.01 89.5651C273.765 89.2179 272.382 88.1231 272.382 86.3606C272.382 84.1175 274.611 82.7823 277.659 82.7823C280.142 82.7823 282.117 83.5567 283.584 84.5447L284.431 83.263C282.794 82.1681 280.593 81.2869 277.659 81.2869C273.765 81.2869 270.633 83.1561 270.633 86.4407C270.633 89.1912 272.721 90.66 276.192 91.0338L278.336 91.2741C281.496 91.5946 283.133 92.5559 283.133 94.5053C283.133 96.9354 280.593 98.1104 277.377 98.1104C274.752 98.1104 272.298 97.1223 270.971 96.1076L270.068 97.3626C271.761 98.6177 274.555 99.6058 277.405 99.6058C281.496 99.6058 284.854 97.87 284.854 94.3718C284.882 91.381 282.428 90.1259 279.07 89.7787Z"
            fill="#757474" />
        <path d="M301.277 81.447H299.612V99.4455H301.277V81.447Z" fill="#757474" />
        <path
            d="M325.149 81.2334C319.505 81.2334 315.414 85.1055 315.414 90.4463C315.414 95.7871 319.505 99.6591 325.149 99.6591C330.792 99.6591 334.884 95.7871 334.884 90.4463C334.912 85.1055 330.792 81.2334 325.149 81.2334ZM333.078 90.4463C333.078 94.8524 329.748 98.0569 325.149 98.0569C320.549 98.0569 317.191 94.8524 317.191 90.4463C317.191 86.0401 320.521 82.8356 325.149 82.8356C329.748 82.8356 333.078 86.0401 333.078 90.4463Z"
            fill="#757474" />
        <path
            d="M362.367 81.447V96.5882L350.008 81.447H348.456V99.4455H350.177L350.206 84.2776L362.537 99.4455H364.089V81.447H362.367Z"
            fill="#757474" />
    </g>
    <defs>
        <clipPath id="clip0_64_1347">
            <rect width="485" height="105" fill="white" />
        </clipPath>
    </defs>
</svg>