<svg width="258" height="57" viewBox="0 0 258 57" fill="none" xmlns="http://www.w3.org/2000/svg">
<g clip-path="url(#clip0_149_3050)">
<path d="M249.309 15.3372C249.129 17.6422 248.513 19.3962 247.372 20.8604C245.962 22.7014 244.025 23.8176 241.488 24.296C240.438 24.4845 239.372 24.6005 238.321 24.6005C236.58 24.615 224.587 24.615 224.587 24.615V4.97228C224.587 4.97228 234.824 4.97228 238.021 4.97228C240.062 4.97228 241.789 5.26221 243.335 5.87106C247.342 7.42218 249.639 11.0608 249.309 15.3372ZM254.818 12.1045C254.082 7.23372 251.305 3.71109 246.592 1.6091C244.16 0.536368 241.368 0 238.051 0H219.093V24.3395C219.093 27.4128 221.705 29.6017 224.527 29.6017H238.126C240.498 29.6017 242.584 29.3263 244.475 28.7754C249.279 27.3838 252.476 24.528 254.007 20.2805C254.968 17.6567 255.238 14.9023 254.818 12.1045Z" fill="white"/>
<path d="M37.241 29.6017C34.5091 29.6017 31.7622 27.5432 31.7622 24.3395V9.20524L18.628 25.5862L5.47882 9.20524V24.325C5.47882 27.5432 2.7169 29.5872 0 29.5872V0C3.4374 0 6.13928 1.68159 7.70037 3.62411C8.55597 4.68235 18.613 17.0913 18.613 17.0913C18.613 17.0913 28.67 4.68235 29.5256 3.62411C31.0867 1.68159 33.7886 0 37.241 0V29.6017Z" fill="white"/>
<path d="M79.6005 25.6442V24.6729H54.9984V17.2653H73.8065C75.7278 17.2653 77.7092 15.7866 77.7092 13.3077V12.3365H54.9984V4.92879H75.6828C77.6041 4.92879 79.5855 3.45015 79.5855 0.971261V0H49.5195V29.6017H75.6978C77.6041 29.6017 79.6005 28.1231 79.6005 25.6442Z" fill="white"/>
<path d="M117.862 5.24771C117.862 2.05849 120.549 0 123.326 0V29.6017H120.849C118.237 29.6017 116.676 28.0651 116.661 28.0506L95.6767 7.85707V24.3395C95.6767 27.1228 93.4101 29.6017 90.2129 29.6017V0H92.6896C95.3014 0 96.8625 1.55112 96.8775 1.58011L117.862 21.7737V5.24771Z" fill="white"/>
<path d="M159.561 18.193L159.816 18.1205C162.248 17.4972 164.079 16.41 165.385 14.7864C166.886 12.9308 167.502 10.7274 167.247 8.07452C166.901 4.42141 164.905 1.97152 161.317 0.797304C159.216 0.115972 157.084 0.0144964 155.463 0.0144964C149.789 0 136.805 0 135.214 0L135.199 29.6017C138.396 29.6017 140.648 27.0793 140.648 24.3395C140.648 22.3535 140.663 18.5989 140.663 18.5989H152.506C152.506 18.5989 160.762 27.2098 161.242 27.7172C162.849 29.3988 164.47 29.5872 165.61 29.5872H170.549L159.561 18.193ZM155.704 13.6556H140.663V4.97228H155.674C157.009 4.97228 158 5.11724 158.901 5.43616C160.642 6.05951 161.543 7.19023 161.633 8.88632C161.738 10.6839 161.002 11.9886 159.381 12.8583C158.405 13.3947 157.235 13.6556 155.704 13.6556Z" fill="white"/>
<path d="M212.984 29.6017L196.802 0H193.935C190.768 0 189.327 2.47889 189.312 2.49339L174.512 29.6017H177.559C178.565 29.6017 180.936 29.3408 182.422 26.7024C183.908 24.0641 185.214 21.6722 185.214 21.6722H202.281C202.281 21.6722 203.602 24.0496 205.073 26.7024C206.559 29.3408 208.931 29.6017 209.936 29.6017H212.984ZM194.326 16.6854H193.14H187.766L193.74 5.61012L199.714 16.6854H194.326Z" fill="white"/>
<path d="M62.8486 45.055H66.4812V53.9848H67.4118V45.055H71.0444V44.1997H62.8486V45.055Z" fill="white"/>
<path d="M86.1752 48.6356H79.7207V44.1997H78.79V53.9848H79.7207V49.4909H86.1752V53.9848H87.0908V44.1997H86.1752V48.6356Z" fill="white"/>
<path d="M96.4121 49.4764H102.251V48.6501H96.4121V45.055H102.416V44.1997H95.4814V53.9848H102.476V53.144H96.4121V49.4764Z" fill="white"/>
<path d="M123.371 53.0715L119.619 44.2142L119.604 44.1997H118.628L122.786 53.9703L122.801 53.9848H123.912L128.07 44.2432L128.085 44.1997H127.139L123.371 53.0715Z" fill="white"/>
<path d="M136.145 44.2144H135.26V53.985H136.145V44.2144Z" fill="white"/>
<path d="M148.453 48.7368L147.358 48.6208C145.631 48.4324 144.896 47.838 144.896 46.8813C144.896 45.6636 146.082 44.9388 147.703 44.9388C149.024 44.9388 150.075 45.3591 150.855 45.8955L151.305 45.1997C150.435 44.6053 149.264 44.127 147.703 44.127C145.631 44.127 143.965 45.1417 143.965 46.9248C143.965 48.4179 145.076 49.2152 146.922 49.4182L148.063 49.5486C149.744 49.7226 150.615 50.2444 150.615 51.3027C150.615 52.6219 149.264 53.2597 147.553 53.2597C146.157 53.2597 144.851 52.7233 144.145 52.1725L143.665 52.8538C144.566 53.5351 146.052 54.0715 147.568 54.0715C149.744 54.0715 151.531 53.1292 151.531 51.2302C151.546 49.6066 150.24 48.9253 148.453 48.7368Z" fill="white"/>
<path d="M160.266 44.2144H159.381V53.985H160.266V44.2144Z" fill="white"/>
<path d="M172.966 44.0981C169.964 44.0981 167.787 46.2001 167.787 49.0994C167.787 51.9987 169.964 54.1007 172.966 54.1007C175.968 54.1007 178.144 51.9987 178.144 49.0994C178.159 46.2001 175.968 44.0981 172.966 44.0981ZM177.184 49.0994C177.184 51.4913 175.412 53.2309 172.966 53.2309C170.519 53.2309 168.733 51.4913 168.733 49.0994C168.733 46.7075 170.504 44.9679 172.966 44.9679C175.412 44.9679 177.184 46.7075 177.184 49.0994Z" fill="white"/>
<path d="M192.764 44.2144V52.4338L186.19 44.2144H185.364V53.985H186.28L186.295 45.751L192.854 53.985H193.68V44.2144H192.764Z" fill="white"/>
</g>
<defs>
<clipPath id="clip0_149_3050">
<rect width="258" height="57" fill="white"/>
</clipPath>
</defs>
</svg>
