<svg width="237" height="94" viewBox="0 0 237 94" fill="none" xmlns="http://www.w3.org/2000/svg">
    <path
        d="M97.6728 0L94.1253 21.0882L42.0552 1.57669H58.4921L90.4989 13.0865L92.9033 0H97.6728ZM77.6883 87.0725L77.4912 88.2551H80.8811C80.4869 90.3836 78.1219 91.842 76.151 91.842C74.9685 91.842 73.8648 91.2114 73.1553 90.3836C72.4458 89.5164 72.1699 88.3733 72.4064 87.1514C72.8794 84.5893 75.3233 82.3819 77.9642 82.3819C79.6592 82.3819 80.8023 83.1702 81.5118 84.5498L82.576 83.6827C81.63 82.106 80.1716 81.1994 78.1613 81.1994C74.8503 81.1994 71.6969 83.8798 71.1056 87.1514C70.5144 90.3836 72.7217 93.064 75.9539 93.064C77.5306 93.064 79.265 92.3545 80.5263 91.1325C81.7877 89.9106 82.1819 88.6492 82.4578 87.0725H77.6883ZM93.7705 87.8215H94.0858L96.648 92.8669H98.2247L95.5049 87.7426C97.2786 87.585 98.6188 86.363 98.9342 84.5893C99.4072 81.9877 97.4757 81.4359 95.3078 81.4359H93.6523L91.5631 92.9063H92.8245L93.7705 87.8215ZM94.7165 82.579H95.1107C96.648 82.579 97.9882 82.7761 97.6334 84.6681C97.3181 86.4419 95.8202 86.7178 94.3618 86.7178H93.9676L94.7165 82.579ZM120.574 87.1514C121.165 83.8798 118.958 81.1994 115.686 81.1994C112.415 81.1994 109.222 83.8798 108.631 87.1514C108.04 90.4624 110.286 93.064 113.519 93.064C116.79 93.064 119.944 90.423 120.574 87.1514ZM109.892 87.112C110.365 84.5104 112.809 82.3819 115.45 82.3819C118.091 82.3819 119.746 84.5104 119.273 87.112C118.8 89.7135 116.317 91.842 113.716 91.842C111.153 91.842 109.419 89.7135 109.892 87.112ZM132.912 81.3965H131.65L130.35 88.5704C130.113 89.8712 130.034 90.9354 130.862 91.8814C131.493 92.6304 132.518 93.064 133.621 93.064C134.764 93.064 135.986 92.591 136.932 91.7632C137.997 90.8172 138.273 89.8317 138.509 88.5704L139.81 81.3965H138.548L137.326 88.2157C137.169 89.1222 137.011 90.1077 136.302 90.8566C135.671 91.4873 134.686 91.8814 133.858 91.8814C133.03 91.8814 132.123 91.4873 131.729 90.7778C131.335 90.0288 131.532 89.0828 131.69 88.2157L132.912 81.3965ZM150.531 87.8215H151.438C152.384 87.8215 153.409 87.7032 154.315 87.0725C155.143 86.4813 155.695 85.5353 155.853 84.6287C156.05 83.6038 155.774 82.6184 155.025 82.0271C154.276 81.4359 153.29 81.4359 152.305 81.4359H150.452L148.363 92.9063H149.625L150.531 87.8215ZM151.517 82.579H151.99C153.488 82.579 154.946 82.6972 154.631 84.5893C154.315 86.2448 153.054 86.639 151.635 86.639H150.768L151.517 82.579Z"
        fill="#9CB6D3" />
    <path
        d="M141.347 71.8969H130.941L137.563 34.293H147.969L141.347 71.8969ZM169.018 68.4282H163.342L172.25 16.6341C172.329 16.0822 172.447 15.5698 172.526 15.0968L174.063 6.18852C172.25 6.22793 170.437 6.26735 168.663 6.26735C166.929 6.26735 164.603 6.26735 162.829 6.22793L151.595 71.8969H151.674V71.9758H168.387L169.018 68.4282ZM149.388 26.5278H138.982L138.194 30.7848H148.6L149.388 26.5278ZM83.0884 26.5278C97.2392 26.5672 103.27 30.9425 100.747 44.9356L95.9779 71.9758L85.217 71.8969V71.8575C82.4578 71.8575 67.7946 71.6605 65.9026 71.6605C56.2453 71.6605 51.87 66.9304 53.2496 59.1258C55.4176 46.8276 65.2325 45.4874 90.1047 45.4874L91.2478 38.9442C91.2872 38.6683 91.3266 38.3923 91.3661 38.1164C91.5237 32.7951 87.3849 30.9031 83.798 30.6666H62.9068L63.6558 26.5278H83.0884ZM89.2375 50.2175C74.4167 50.2175 65.6661 50.7693 64.4441 57.5885C63.3799 63.5799 66.2179 65.7479 71.618 66.3391C75.7569 66.7727 85.4535 66.9698 86.2024 66.9698L89.2375 50.2175ZM206.07 27.4344C222.862 27.4344 234.726 37.7223 232.558 50.3752C230.39 63.0675 215.018 73.316 198.226 73.316C181.434 73.316 169.57 63.0281 171.738 50.3752C173.906 37.6828 189.278 27.4344 206.07 27.4344ZM201.774 68.6647C212.653 67.7187 221.758 58.7316 222.113 48.6408C222.507 38.55 213.993 31.1002 203.153 32.0856C192.274 33.0316 183.169 42.0187 182.814 52.1095C182.42 62.2003 190.894 69.6108 201.774 68.6647ZM32.7133 34.0565L19.745 29.4841C13.6748 27.3161 10.8762 24.2022 11.5463 20.0634C12.4923 14.269 19.4297 9.61781 29.284 9.57839C39.1383 9.53897 45.445 14.1508 46.7458 22.6649C47.6524 22.4678 48.559 22.4678 49.5444 22.4678H50.3328L52.1854 10.9186C44.499 7.5287 37.128 5.75493 29.3628 5.79434C13.5565 5.87318 1.77081 13.8749 0.194119 23.4138C-1.02781 31.0608 3.50516 36.3821 14.1872 40.2055L28.1803 45.2509C36.9309 48.4437 40.7544 51.5577 39.8084 57.3914C38.7835 63.8558 30.8607 68.9801 19.1538 69.0195C12.2164 69.0589 6.61912 66.7727 3.03216 62.5157L1.73139 70.2808C7.36804 72.2911 13.4383 73.316 19.9027 73.2765C36.9309 73.1977 49.6233 64.9989 51.4365 53.8439C52.9343 44.3049 46.5881 39.023 32.7133 34.0565ZM112.927 71.9364L119.234 34.293L132.005 34.2535L132.518 30.7848H119.786L121.796 19.5509C123.018 12.4558 129.167 10.4062 133.227 10.3667H151.793L152.581 6.22793H134.488C120.338 6.26735 113.006 9.34189 110.641 23.2956L102.639 71.8181L112.927 71.9364ZM228.498 25.1088C228.144 27.2373 229.641 28.9716 231.849 28.9716C234.017 28.9716 236.106 27.2373 236.461 25.1088C236.815 22.9802 235.318 21.2459 233.15 21.2459C230.903 21.2459 228.814 22.9802 228.498 25.1088ZM235.948 25.1088C235.633 27.0008 233.859 28.4986 231.928 28.4986C229.996 28.4986 228.695 27.0008 229.011 25.1088C229.326 23.2167 231.1 21.7583 233.071 21.7583C234.923 21.7189 236.224 23.2167 235.948 25.1088ZM233.031 25.3453C233.82 25.3453 234.45 25.0299 234.569 24.2022C234.687 23.4927 234.372 23.0985 233.228 23.0985H231.336L230.627 27.3161H231.139L231.455 25.3847H232.48L233.386 27.3161H234.017L233.031 25.3453ZM231.534 24.8723L231.731 23.5715H233.031C233.544 23.5715 234.174 23.6503 234.096 24.2022C233.977 24.9905 232.992 24.9117 232.401 24.9117H231.534V24.8723Z"
        fill="#003056" />
</svg>